{
    "asset": {
        "version": "2.0",
        "generator": "This 3D model is generated by KIRI Engine App"
    },
    "extensionsUsed": [
        "KHR_materials_pbrSpecularGlossiness",
        "FB_ngon_encoding"
    ],
    "accessors": [
        {
            "bufferView": 0,
            "byteOffset": 0,
            "componentType": 5126,
            "count": 195963,
            "type": "VEC3",
            "max": [
                2.31954288482666,
                1.2882260084152222,
                2.4933040142059328
            ],
            "min": [
                -2.870020866394043,
                -0.6856669783592224,
                -3.7417190074920656
            ]
        },
        {
            "bufferView": 1,
            "byteOffset": 0,
            "componentType": 5126,
            "count": 195963,
            "type": "VEC3",
            "max": [
                0.9999353885650635,
                0.9999955892562866,
                0.9999918937683106
            ],
            "min": [
                -0.9999533891677856,
                -1.0,
                -0.9999809265136719
            ]
        },
        {
            "bufferView": 2,
            "byteOffset": 0,
            "componentType": 5126,
            "count": 195963,
            "type": "VEC2",
            "max": [
                0.9967589974403381,
                0.9987940192222595
            ],
            "min": [
                0.00120599998626858,
                0.0012059807777404786
            ]
        },
        {
            "bufferView": 3,
            "byteOffset": 0,
            "componentType": 5125,
            "count": 554073,
            "type": "SCALAR",
            "max": [
                195962
            ],
            "min": [
                0
            ]
        }
    ],
    "buffers": [
        {
            "byteLength": 8487108,
            "uri": "3DModel.bin"
        }
    ],
    "bufferViews": [
        {
            "buffer": 0,
            "byteOffset": 0,
            "byteLength": 2351556,
            "target": 34962
        },
        {
            "buffer": 0,
            "byteOffset": 2351556,
            "byteLength": 2351556,
            "target": 34962
        },
        {
            "buffer": 0,
            "byteOffset": 4703112,
            "byteLength": 1567704,
            "target": 34962
        },
        {
            "buffer": 0,
            "byteOffset": 6270816,
            "byteLength": 2216292,
            "target": 34963
        }
    ],
    "images": [
        {
            "uri": "data:image/jpeg;base64,"
        }
    ],
    "materials": [
        {
            "name": "3DModel.001",
            "pbrMetallicRoughness": {
                "baseColorTexture": {
                    "index": 0
                },
                "baseColorFactor": [
                    0.6000000238418579,
                    0.6000000238418579,
                    0.6000000238418579,
                    1.0
                ],
                "metallicFactor": 0.0
            },
            "extensions": {
                "KHR_materials_pbrSpecularGlossiness": {
                    "diffuseFactor": [
                        0.6000000238418579,
                        0.6000000238418579,
                        0.6000000238418579,
                        1.0
                    ],
                    "specularFactor": [
                        0.0,
                        0.0,
                        0.0
                    ],
                    "glossinessFactor": 0.0,
                    "diffuseTexture": {
                        "index": 0
                    }
                }
            }
        }
    ],
    "meshes": [
        {
            "name": "3DModel",
            "primitives": [
                {
                    "mode": 4,
                    "material": 0,
                    "indices": 3,
                    "attributes": {
                        "POSITION": 0,
                        "NORMAL": 1,
                        "TEXCOORD_0": 2
                    }
                }
            ]
        }
    ],
    "nodes": [
        {
            "name": "3DModel.obj",
            "children": [
                1
            ]
        },
        {
            "name": "3DModel",
            "mesh": 0
        }
    ],
    "samplers": [
        {}
    ],
    "scenes": [
        {
            "nodes": [
                0
            ]
        }
    ],
    "textures": [
        {
            "source": 0,
            "sampler": 0
        }
    ],
    "scene": 0
}