{
    "asset": {
        "version": "2.0",
        "generator": "This 3D model is generated by KIRI Engine App"
    },
    "extensionsUsed": [
        "KHR_materials_pbrSpecularGlossiness",
        "FB_ngon_encoding"
    ],
    "accessors": [
        {
            "bufferView": 0,
            "byteOffset": 0,
            "componentType": 5126,
            "count": 12743,
            "type": "VEC3",
            "max": [
                2.316565990447998,
                1.2855629920959473,
                2.4828989505767824
            ],
            "min": [
                -2.870020866394043,
                -0.685571014881134,
                -2.8122119903564455
            ]
        },
        {
            "bufferView": 1,
            "byteOffset": 0,
            "componentType": 5126,
            "count": 12743,
            "type": "VEC3",
            "max": [
                0.9998168349266052,
                0.9999955892562866,
                0.9999452829360962
            ],
            "min": [
                -0.9950181245803833,
                -1.0,
                -0.9996070265769959
            ]
        },
        {
            "bufferView": 2,
            "byteOffset": 0,
            "componentType": 5126,
            "count": 12743,
            "type": "VEC2",
            "max": [
                0.9983819723129273,
                0.9984769821166992
            ],
            "min": [
                0.00152299995534122,
                0.0015230178833007813
            ]
        },
        {
            "bufferView": 3,
            "byteOffset": 0,
            "componentType": 5125,
            "count": 26049,
            "type": "SCALAR",
            "max": [
                12742
            ],
            "min": [
                0
            ]
        }
    ],
    "buffers": [
        {
            "byteLength": 511972,
            "uri": "3DModel_LowPoly.bin"
        }
    ],
    "bufferViews": [
        {
            "buffer": 0,
            "byteOffset": 0,
            "byteLength": 152916,
            "target": 34962
        },
        {
            "buffer": 0,
            "byteOffset": 152916,
            "byteLength": 152916,
            "target": 34962
        },
        {
            "buffer": 0,
            "byteOffset": 305832,
            "byteLength": 101944,
            "target": 34962
        },
        {
            "buffer": 0,
            "byteOffset": 407776,
            "byteLength": 104196,
            "target": 34963
        }
    ],
    "images": [
        {
            "uri": "data:image/jpeg;base64,"
        }
    ],
    "materials": [
        {
            "name": "3DModel_LowPoly.001",
            "pbrMetallicRoughness": {
                "baseColorTexture": {
                    "index": 0
                },
                "baseColorFactor": [
                    0.6000000238418579,
                    0.6000000238418579,
                    0.6000000238418579,
                    1.0
                ],
                "metallicFactor": 0.0
            },
            "extensions": {
                "KHR_materials_pbrSpecularGlossiness": {
                    "diffuseFactor": [
                        0.6000000238418579,
                        0.6000000238418579,
                        0.6000000238418579,
                        1.0
                    ],
                    "specularFactor": [
                        0.0,
                        0.0,
                        0.0
                    ],
                    "glossinessFactor": 0.0,
                    "diffuseTexture": {
                        "index": 0
                    }
                }
            }
        }
    ],
    "meshes": [
        {
            "name": "3DModel_LowPoly",
            "primitives": [
                {
                    "mode": 4,
                    "material": 0,
                    "indices": 3,
                    "attributes": {
                        "POSITION": 0,
                        "NORMAL": 1,
                        "TEXCOORD_0": 2
                    }
                }
            ]
        }
    ],
    "nodes": [
        {
            "name": "3DModel_LowPoly.obj",
            "children": [
                1
            ]
        },
        {
            "name": "3DModel_LowPoly",
            "mesh": 0
        }
    ],
    "samplers": [
        {}
    ],
    "scenes": [
        {
            "nodes": [
                0
            ]
        }
    ],
    "textures": [
        {
            "source": 0,
            "sampler": 0
        }
    ],
    "scene": 0
}